<?xml version="1.0" standalone="no"?>
<!DOCTYPE svg PUBLIC "-//W3C//DTD SVG 20010904//EN"
 "http://www.w3.org/TR/2001/REC-SVG-20010904/DTD/svg10.dtd">
<svg version="1.0" xmlns="http://www.w3.org/2000/svg"
 width="2084.000000pt" height="2084.000000pt" viewBox="0 0 2084.000000 2084.000000"
 preserveAspectRatio="xMidYMid meet">
<metadata>
Created by potrace 1.14, written by Peter Selinger 2001-2017
</metadata>
<g transform="translate(0.000000,2084.000000) scale(0.100000,-0.100000)"
fill="#000000" stroke="none">
<path d="M3405 14670 c-5 -25 -11 -55 -20 -100 -3 -14 -7 -36 -10 -50 -3 -14
-7 -36 -10 -50 -3 -14 -7 -36 -10 -50 -3 -14 -8 -41 -11 -60 -3 -19 -9 -51
-14 -70 -5 -19 -12 -51 -15 -70 -3 -19 -13 -69 -21 -110 -9 -41 -18 -84 -20
-95 -2 -11 -8 -42 -14 -70 -11 -55 -18 -87 -25 -125 -7 -38 -14 -70 -25 -125
-18 -88 -20 -99 -26 -135 -3 -19 -9 -51 -14 -70 -5 -19 -11 -48 -14 -65 -6
-33 -22 -116 -31 -155 -3 -14 -7 -36 -10 -50 -8 -43 -14 -74 -20 -100 -6 -26
-12 -57 -20 -100 -7 -38 -14 -70 -25 -125 -18 -85 -20 -99 -26 -135 -3 -19 -8
-38 -10 -41 -2 -4 -6 -28 -9 -55 -4 -26 -8 -51 -10 -54 -2 -4 -7 -20 -9 -36
-3 -16 -8 -40 -11 -54 -3 -14 -7 -36 -10 -50 -3 -14 -7 -36 -10 -50 -3 -14 -8
-38 -11 -55 -3 -16 -9 -48 -14 -70 -5 -22 -11 -53 -14 -70 -6 -30 -24 -123
-32 -160 -12 -59 -15 -73 -20 -105 -3 -19 -7 -37 -9 -40 -2 -3 -6 -25 -10 -50
-4 -25 -8 -47 -10 -50 -2 -3 -6 -26 -10 -50 -3 -25 -8 -53 -11 -62 -5 -18 -11
-47 -19 -93 -3 -16 -8 -37 -10 -45 -2 -8 -7 -31 -10 -50 -3 -19 -8 -42 -10
-50 -2 -8 -7 -28 -9 -45 -5 -29 -23 -119 -32 -160 -12 -59 -15 -73 -20 -105
-3 -19 -9 -51 -14 -70 -5 -19 -12 -51 -15 -70 -3 -19 -13 -69 -21 -110 -9 -41
-18 -84 -20 -95 -2 -11 -8 -42 -14 -70 -11 -55 -18 -87 -25 -125 -7 -38 -14
-70 -25 -125 -6 -27 -12 -61 -15 -75 -3 -14 -7 -36 -10 -50 -13 -60 -16 -77
-21 -110 -2 -19 -7 -43 -10 -52 -5 -16 -9 -34 -19 -88 -3 -14 -7 -36 -10 -50
-3 -14 -7 -36 -10 -50 -3 -14 -7 -36 -10 -50 -3 -14 -7 -37 -10 -52 -2 -15 -6
-35 -9 -45 -3 -10 -8 -34 -11 -53 -3 -19 -8 -42 -10 -50 -2 -8 -7 -28 -10 -45
-2 -16 -7 -41 -10 -55 -3 -14 -8 -38 -10 -55 -3 -16 -8 -37 -10 -45 -2 -8 -7
-31 -10 -50 -3 -19 -8 -42 -10 -50 -2 -8 -7 -28 -10 -45 -2 -16 -7 -41 -10
-55 -3 -14 -7 -36 -10 -50 -3 -14 -7 -36 -10 -50 -3 -14 -7 -36 -10 -50 -3
-14 -7 -36 -10 -50 -3 -14 -7 -37 -10 -52 -2 -15 -6 -35 -9 -45 -3 -10 -8 -31
-11 -48 -2 -16 -7 -41 -10 -55 -3 -14 -7 -36 -10 -50 -8 -42 -15 -74 -20 -100
-3 -14 -8 -41 -11 -60 -3 -19 -9 -51 -14 -70 -5 -19 -11 -48 -14 -65 -5 -29
-23 -121 -32 -160 -12 -59 -15 -73 -20 -105 -3 -19 -9 -51 -14 -70 -5 -19 -12
-48 -14 -65 -3 -16 -8 -41 -11 -55 -3 -14 -7 -36 -10 -50 -3 -14 -7 -36 -10
-50 -7 -32 -14 -68 -20 -105 -3 -16 -8 -37 -11 -46 -2 -9 -7 -34 -10 -55 -2
-22 -7 -47 -10 -56 -5 -16 -9 -34 -19 -88 -3 -14 -7 -36 -10 -50 -3 -14 -7
-36 -10 -50 -7 -38 -14 -70 -25 -125 -11 -55 -18 -87 -25 -125 -3 -14 -7 -36
-10 -50 -3 -14 -7 -36 -10 -50 -8 -43 -14 -74 -20 -100 -13 -60 -16 -77 -21
-110 -2 -19 -7 -43 -10 -52 -5 -16 -9 -34 -19 -88 -3 -14 -7 -36 -10 -50 -3
-14 -7 -36 -10 -50 -8 -43 -14 -74 -20 -100 -6 -26 -12 -57 -20 -100 -7 -38
-14 -70 -25 -125 -18 -85 -20 -99 -26 -135 -3 -19 -8 -38 -10 -41 -2 -4 -6
-28 -9 -55 -4 -26 -8 -51 -10 -54 -2 -4 -7 -20 -9 -36 -3 -16 -8 -40 -11 -54
-3 -14 -7 -36 -10 -50 -3 -14 -7 -36 -10 -50 -3 -14 -8 -38 -11 -55 -3 -16 -9
-48 -14 -70 -5 -22 -11 -53 -14 -70 -6 -34 -23 -118 -31 -155 -3 -14 -7 -36
-10 -50 -3 -14 -7 -34 -9 -45 -4 -20 1 -20 1285 -20 845 0 1291 3 1298 10 5 6
12 28 15 50 3 22 23 130 46 240 22 110 42 209 44 220 2 11 20 101 41 200 20
99 38 191 40 205 2 14 20 104 40 200 19 96 37 184 39 195 3 11 18 88 34 170
17 83 33 164 36 180 3 17 15 74 26 128 11 54 22 113 25 130 3 18 8 39 11 48 2
10 7 32 10 50 3 19 7 43 9 54 2 11 27 133 55 270 28 138 52 259 54 270 2 11
16 76 30 145 14 69 28 140 31 158 8 50 35 175 41 194 5 16 128 17 1997 17
1096 0 1999 0 2008 1 11 0 20 22 33 83 19 88 23 108 31 147 3 14 7 36 10 50 3
14 8 39 10 55 3 17 8 37 10 45 2 8 6 26 9 40 4 27 94 471 102 505 5 25 12 61
19 100 3 17 17 82 30 145 24 112 49 240 58 290 3 14 19 95 37 180 18 85 34
166 36 180 3 14 9 41 14 60 5 19 12 54 14 76 l5 41 -2010 0 c-1105 0 -2012 2
-2014 5 -3 3 13 92 35 199 21 107 41 205 43 219 3 14 19 93 36 175 17 83 33
161 35 175 2 14 5 25 6 25 1 0 4 14 6 30 2 17 9 50 14 75 6 25 13 56 15 70 3
14 7 36 10 50 3 14 7 36 10 50 24 125 32 166 39 188 3 9 8 33 10 52 3 19 16
87 30 151 14 64 28 131 30 150 8 55 75 380 80 388 5 7 1088 6 3201 -3 572 -3
1115 -5 1206 -5 l166 -1 -12 -47 c-7 -27 -15 -66 -18 -88 -4 -22 -11 -62 -17
-90 -15 -70 -19 -95 -26 -135 -3 -19 -7 -43 -10 -52 -5 -18 -12 -48 -19 -93
-3 -16 -8 -37 -10 -45 -2 -8 -7 -28 -10 -45 -2 -16 -7 -41 -10 -55 -3 -14 -7
-36 -10 -50 -3 -14 -14 -70 -25 -125 -11 -55 -22 -111 -24 -125 -3 -14 -48
-241 -101 -505 -52 -264 -98 -493 -101 -510 -4 -16 -8 -39 -9 -50 -3 -16 -30
-149 -51 -250 -2 -11 -6 -31 -9 -45 -3 -14 -7 -36 -10 -50 -7 -32 -14 -68 -20
-105 -3 -16 -8 -37 -10 -45 -2 -8 -7 -28 -10 -45 -2 -16 -7 -41 -10 -55 -3
-14 -8 -36 -10 -50 -2 -14 -45 -230 -95 -480 -50 -250 -93 -466 -95 -480 -2
-14 -10 -56 -19 -93 -9 -37 -18 -82 -20 -100 -2 -18 -9 -52 -15 -77 -10 -44
-20 -96 -27 -135 -1 -11 -5 -31 -8 -45 -16 -75 -20 -91 -31 -150 -3 -14 -7
-36 -10 -50 -3 -14 -8 -38 -10 -55 -3 -16 -8 -37 -10 -45 -2 -8 -7 -28 -10
-45 -2 -16 -7 -41 -10 -55 -3 -14 -7 -36 -10 -51 -2 -14 -52 -263 -110 -555
-58 -291 -108 -540 -110 -554 -3 -14 -14 -70 -25 -125 -21 -103 -47 -237 -56
-290 -3 -16 -9 -46 -14 -65 -5 -19 -12 -48 -14 -65 -3 -16 -8 -41 -11 -55 -3
-14 -8 -38 -10 -55 -3 -16 -26 -129 -51 -250 -24 -121 -47 -234 -49 -250 -3
-17 -17 -87 -31 -155 -15 -69 -27 -138 -28 -155 l-1 -30 1233 0 1233 0 9 35
c5 19 12 49 14 65 3 17 8 41 11 55 3 14 7 36 10 50 3 14 7 36 10 50 3 14 7 36
10 50 9 49 15 75 21 105 4 17 8 39 10 50 2 11 28 144 59 295 31 151 58 286 60
300 2 14 7 36 9 50 21 98 177 870 181 890 2 14 11 59 20 100 9 41 18 89 21
107 2 17 11 62 19 100 9 37 17 81 20 96 2 15 16 83 30 151 14 68 28 136 31
152 3 16 7 36 9 44 2 8 7 31 10 50 3 19 8 42 10 50 2 8 7 29 10 45 6 34 12 69
20 105 6 26 12 57 20 100 3 14 7 36 10 50 3 14 7 36 10 50 3 14 7 34 9 45 3
11 26 126 51 255 26 129 49 243 51 253 11 48 14 64 19 92 2 17 45 230 95 475
50 245 92 456 95 470 2 14 15 82 30 150 14 69 28 136 30 150 2 14 20 106 40
205 21 99 39 191 42 205 3 22 47 237 59 295 2 11 6 31 9 45 8 43 14 74 20 100
6 26 12 57 20 100 8 44 14 74 26 130 7 30 13 64 15 75 1 11 18 97 37 190 20
94 37 184 40 202 3 17 7 36 10 40 3 5 8 27 11 48 3 22 22 122 43 222 l36 183
1701 2 1701 3 12 55 c7 30 14 66 17 80 4 23 43 214 51 250 1 8 22 107 45 220
23 113 44 214 46 225 2 11 6 31 9 45 2 14 18 90 35 170 17 80 32 158 35 174 2
15 7 35 9 45 5 16 15 66 21 106 1 11 5 27 8 35 3 8 8 31 11 50 3 19 15 78 26
130 12 52 23 107 25 121 2 15 15 81 29 148 14 67 26 129 26 139 0 16 -339 17
-6525 17 l-6525 0 -5 -25z"/>
<path d="M16814 14625 c-9 -38 -18 -85 -20 -104 -3 -19 -9 -55 -15 -80 -13
-57 -18 -79 -24 -111 -2 -14 -27 -135 -55 -270 -28 -135 -53 -256 -55 -270
-11 -56 -17 -86 -70 -345 -31 -148 -58 -279 -60 -290 -12 -66 -17 -91 -29
-147 -8 -35 -17 -79 -20 -98 -4 -28 -29 -150 -62 -305 -4 -20 -12 -61 -19
-100 -3 -11 -18 -85 -35 -165 -17 -80 -33 -161 -36 -180 -2 -19 -9 -51 -14
-70 -5 -19 -12 -48 -14 -65 -3 -16 -8 -39 -10 -50 -41 -205 -119 -585 -122
-600 -2 -11 -7 -33 -9 -50 -3 -16 -8 -37 -11 -46 -2 -10 -7 -30 -9 -45 -2 -16
-22 -117 -45 -224 -22 -107 -42 -206 -45 -220 -7 -37 -14 -72 -20 -100 -3 -14
-7 -36 -10 -50 -3 -14 -18 -90 -34 -170 -17 -80 -33 -160 -36 -179 -3 -19 -7
-37 -9 -40 -2 -3 -7 -24 -11 -46 -11 -69 -12 -74 -65 -330 -29 -137 -52 -255
-53 -262 0 -7 -4 -10 -7 -8 -7 4 -85 130 -103 165 -4 8 -15 27 -25 42 -9 15
-42 68 -72 119 -30 51 -65 108 -77 128 -13 20 -34 56 -48 81 -33 58 -49 84
-56 90 -3 3 -8 10 -10 17 -2 6 -274 461 -604 1012 l-600 1001 -602 0 -601 0
-17 -72 c-9 -40 -18 -84 -20 -98 -3 -20 -36 -188 -61 -305 -2 -11 -6 -31 -9
-45 -3 -14 -7 -36 -10 -50 -3 -14 -7 -36 -10 -50 -3 -14 -7 -36 -10 -50 -3
-14 -7 -36 -10 -50 -8 -40 -13 -65 -50 -245 -19 -93 -36 -181 -39 -195 -3 -14
-21 -104 -41 -200 -19 -96 -38 -191 -40 -210 -3 -19 -13 -64 -21 -100 -9 -36
-17 -78 -19 -94 -3 -15 -7 -35 -9 -45 -5 -17 -16 -71 -21 -106 -2 -11 -11 -56
-20 -100 -9 -44 -18 -88 -20 -98 -4 -17 42 -99 230 -412 43 -71 83 -139 89
-150 12 -21 243 -408 261 -436 5 -9 18 -31 29 -50 10 -18 76 -129 147 -247 71
-118 129 -216 129 -218 0 -3 9 -17 19 -32 10 -15 99 -162 196 -327 98 -165
193 -324 211 -352 19 -29 34 -54 34 -57 0 -2 36 -63 80 -135 44 -73 80 -135
80 -138 0 -3 8 -17 19 -31 10 -15 28 -43 38 -62 11 -19 81 -136 155 -260 74
-124 235 -394 358 -600 123 -206 261 -437 306 -513 46 -75 84 -140 84 -143 0
-3 8 -18 19 -32 10 -15 62 -101 116 -192 53 -91 99 -167 101 -169 4 -4 280 -3
934 4 190 3 543 6 784 9 241 3 442 9 447 13 4 4 10 24 13 43 6 39 12 70 22
115 4 17 8 40 10 52 1 11 5 32 9 44 5 13 9 35 11 49 1 14 35 180 74 370 39
190 73 356 75 370 2 14 11 59 20 100 9 41 18 91 21 110 3 19 9 51 14 70 5 19
12 49 14 65 3 17 8 41 11 55 3 14 8 39 11 55 3 17 9 48 14 70 5 22 11 54 14
70 8 42 16 84 41 205 16 74 26 128 30 150 3 14 32 158 65 320 33 162 62 304
64 315 2 11 15 79 29 150 15 72 28 141 31 155 2 14 7 32 10 40 4 13 10 41 21
115 2 11 8 40 14 65 5 25 12 59 15 75 3 17 8 39 10 50 15 70 137 682 141 708
3 18 8 39 10 47 2 8 6 26 9 40 2 14 25 129 51 255 26 127 49 241 51 255 2 14
7 39 11 55 4 17 8 35 9 40 1 6 7 35 13 65 12 58 18 89 26 130 3 14 52 259 110
545 58 286 108 535 111 554 2 19 9 55 15 80 13 55 18 78 24 111 3 14 7 36 10
50 3 14 8 39 10 55 3 17 8 37 10 45 2 8 7 29 10 45 2 17 7 41 10 55 3 14 8 39
11 55 2 17 9 45 14 64 5 19 7 37 5 39 -2 3 0 12 4 21 5 9 12 38 15 65 4 27 9
53 11 56 2 4 7 22 10 41 3 19 21 111 40 204 19 94 37 184 39 200 3 17 24 118
47 225 22 107 42 208 44 224 3 15 7 35 9 45 3 9 8 30 11 46 2 17 7 41 10 55 3
14 7 36 10 50 3 14 7 36 10 50 3 14 7 36 10 50 3 14 7 36 10 50 3 14 8 39 11
55 3 17 10 50 15 75 6 25 12 56 14 70 2 14 45 225 94 469 50 245 88 447 85
450 -3 4 -550 6 -1215 6 l-1209 0 -16 -70z"/>
</g>
</svg>
